<svg width="32" height="32" viewBox="0 0 32 32" fill="none" xmlns="http://www.w3.org/2000/svg">
<g clip-path="url(#clip0_2_2)">
<rect width="32" height="32" rx="5" fill="#FF7A6A"/>
<path d="M18.1143 21.3311C18.1826 20.8232 18.1289 20.3887 17.9531 20.0273C17.7871 19.666 17.5479 19.3535 17.2354 19.0898C16.9131 18.8359 16.5469 18.6211 16.1367 18.4453C15.7266 18.2695 15.3213 18.1133 14.9209 17.9766C14.1592 17.7324 13.4072 17.4248 12.665 17.0537C11.9326 16.6729 11.2832 16.2188 10.7168 15.6914C10.1504 15.1641 9.70117 14.5488 9.36914 13.8457C9.04688 13.1328 8.91504 12.3223 8.97363 11.4141C9.03223 10.3984 9.31055 9.50977 9.80859 8.74805C10.3066 7.98633 10.9316 7.35156 11.6836 6.84375C12.4355 6.33594 13.2705 5.95996 14.1885 5.71582C15.1162 5.47168 16.0439 5.35938 16.9717 5.37891C17.9385 5.39844 18.832 5.56445 19.6523 5.87695C20.4727 6.18945 21.1758 6.62891 21.7617 7.19531C22.3477 7.76172 22.7969 8.44531 23.1094 9.24609C23.4316 10.0469 23.5781 10.9453 23.5488 11.9414L19.6523 11.9268C19.6621 11.4482 19.6035 11.0088 19.4766 10.6084C19.3594 10.208 19.1787 9.86621 18.9346 9.58301C18.6807 9.2998 18.3633 9.08008 17.9824 8.92383C17.6113 8.76758 17.1719 8.68457 16.6641 8.6748C16.2344 8.66504 15.8047 8.71875 15.375 8.83594C14.9551 8.94336 14.5693 9.10938 14.2178 9.33398C13.8662 9.56836 13.5684 9.86133 13.3242 10.2129C13.0801 10.5547 12.9287 10.96 12.8701 11.4287C12.8115 11.9268 12.8945 12.3516 13.1191 12.7031C13.3438 13.0449 13.6465 13.333 14.0273 13.5674C14.3984 13.8115 14.8037 14.0166 15.2432 14.1826C15.6826 14.3389 16.083 14.4756 16.4443 14.5928C17.2158 14.8564 17.9531 15.1885 18.6562 15.5889C19.3594 15.9795 19.9746 16.4482 20.502 16.9951C21.0195 17.542 21.4199 18.1768 21.7031 18.8994C21.9961 19.6123 22.1133 20.4131 22.0547 21.3018C21.9863 22.3271 21.7129 23.2061 21.2344 23.9385C20.7559 24.6611 20.165 25.2812 19.4619 25.7988C18.7295 26.3457 17.8848 26.7363 16.9277 26.9707C15.9805 27.1953 15.0283 27.2979 14.0713 27.2783C13.0459 27.2588 12.0889 27.0928 11.2002 26.7803C10.3115 26.458 9.54004 25.999 8.88574 25.4033C8.23145 24.8076 7.72363 24.0898 7.3623 23.25C7.01074 22.4004 6.84961 21.4385 6.87891 20.3643L10.8047 20.3789C10.7852 20.9551 10.8486 21.4678 10.9951 21.917C11.1416 22.3662 11.3613 22.7471 11.6543 23.0596C11.9375 23.3623 12.3037 23.5967 12.7529 23.7627C13.2021 23.9189 13.7197 24.002 14.3057 24.0117C14.7354 24.0117 15.1602 23.9629 15.5801 23.8652C16.0098 23.7578 16.4004 23.5918 16.752 23.3672C17.1035 23.1523 17.4014 22.8789 17.6455 22.5469C17.8896 22.2051 18.0459 21.7998 18.1143 21.3311Z" fill="white"/>
</g>
<defs>
<clipPath id="clip0_2_2">
<rect width="32" height="32" rx="5" fill="white"/>
</clipPath>
</defs>
</svg>
