<svg width="180" height="68" viewBox="0 0 180 68" fill="none" xmlns="http://www.w3.org/2000/svg">
<path d="M38.6703 36.9961L38.7387 36.6348H42.0395L41.9809 36.957C41.8702 37.5885 41.9451 38.0671 42.2055 38.3926C42.4724 38.7181 42.8956 38.8809 43.475 38.8809C44.0479 38.8809 44.5134 38.7409 44.8715 38.4609C45.2296 38.1745 45.4509 37.7904 45.5355 37.3086C45.6267 36.8268 45.5486 36.446 45.3012 36.166C45.0603 35.8861 44.419 35.5378 43.3773 35.1211C42.2641 34.6849 41.3591 34.125 40.6625 33.4414C39.9724 32.7513 39.7348 31.8073 39.9496 30.6094C40.1775 29.3203 40.8025 28.3145 41.8246 27.5918C42.8467 26.8626 44.1033 26.498 45.5941 26.498C47.072 26.498 48.1918 26.8757 48.9535 27.6309C49.7217 28.3861 49.9919 29.4147 49.7641 30.7168L49.7055 31.0684H46.4633L46.5219 30.7559C46.626 30.1895 46.5642 29.7435 46.3363 29.418C46.1085 29.0859 45.7211 28.9199 45.1742 28.9199C44.6208 28.9199 44.1911 29.0404 43.8852 29.2812C43.5857 29.5156 43.4034 29.8281 43.3383 30.2188C43.2667 30.6159 43.3448 30.9577 43.5727 31.2441C43.8005 31.5241 44.4385 31.8822 45.4867 32.3184C46.626 32.8001 47.531 33.3958 48.2016 34.1055C48.8786 34.8151 49.1033 35.8177 48.8754 37.1133C48.6215 38.5456 47.9477 39.6003 46.8539 40.2773C45.7602 40.9479 44.4971 41.2832 43.0648 41.2832C41.6521 41.2832 40.503 40.9284 39.6176 40.2188C38.7322 39.5091 38.4164 38.4349 38.6703 36.9961ZM49.8621 41L52.3719 26.7812H57.3719C58.8953 26.7812 59.9956 27.1719 60.6727 27.9531C61.3497 28.7279 61.5516 29.8932 61.2781 31.4492C61.0047 32.9987 60.3895 34.1673 59.4324 34.9551C58.4819 35.7428 57.2417 36.1367 55.7117 36.1367H53.9441L53.0945 41H49.8621ZM54.3641 33.7539H55.7898C56.4669 33.7539 56.978 33.5586 57.323 33.168C57.6746 32.7708 57.9187 32.1979 58.0555 31.4492C58.1857 30.707 58.1434 30.1439 57.9285 29.7598C57.7202 29.3691 57.2775 29.1738 56.6004 29.1738H55.1746L54.3641 33.7539ZM61.3371 41L63.8469 26.7812H72.5773L72.1477 29.2129H66.6203L66.0441 32.4941H70.6828L70.2629 34.8867H65.6242L64.9699 38.5781H70.6047L70.175 41H61.3371ZM71.8746 41L74.3844 26.7812H79.1012C80.6506 26.7812 81.7965 27.1686 82.5387 27.9434C83.2809 28.7116 83.5217 29.8184 83.2613 31.2637C83.0074 32.7285 82.3661 33.8613 81.3375 34.6621C80.3154 35.4629 79.0328 35.8568 77.4898 35.8438H76.0055L75.107 41H71.8746ZM76.4254 33.4902H77.7926C78.4631 33.4902 78.9742 33.2949 79.3258 32.9043C79.6773 32.5137 79.915 31.9798 80.0387 31.3027C80.1559 30.6322 80.1038 30.1081 79.8824 29.7305C79.6676 29.3529 79.2249 29.1641 78.5543 29.1641H77.1871L76.4254 33.4902ZM78.8277 41L76.9723 34.4473L80.2437 34.4277L82.2359 41H78.8277ZM83.291 41L85.8008 26.7812H89.707L90.7324 35.4434C90.7585 35.6973 90.7715 35.9544 90.7715 36.2148C90.7715 36.4753 90.7617 36.7585 90.7422 37.0645H90.8398C90.931 36.7585 91.0221 36.4753 91.1133 36.2148C91.2044 35.9544 91.3118 35.694 91.4355 35.4336L95.7227 26.7812H99.5117L97.002 41H93.8379L95.2832 32.7773C95.3353 32.5234 95.3971 32.2305 95.4688 31.8984C95.5404 31.5664 95.6055 31.2767 95.6641 31.0293H95.5957C95.5306 31.2767 95.4329 31.5664 95.3027 31.8984C95.179 32.2305 95.0618 32.5234 94.9512 32.7773L91.1914 41H88.5449L87.6855 32.7773C87.666 32.5234 87.6562 32.2305 87.6562 31.8984C87.6628 31.5664 87.6725 31.2767 87.6855 31.0293H87.6172C87.5911 31.2767 87.5521 31.5664 87.5 31.8984C87.4479 32.2305 87.3991 32.5234 87.3535 32.7773L85.9082 41H83.291Z" fill="#1F6F78"/>
<path d="M99.5512 41L102.061 26.7812H105.293L102.784 41H99.5512ZM105.343 41L107.852 26.7812H111.27L113.565 35.0332C113.611 35.2025 113.65 35.401 113.682 35.6289C113.715 35.8568 113.735 36.0977 113.741 36.3516H113.809C113.842 36.1042 113.874 35.8763 113.907 35.668C113.94 35.4531 113.975 35.2285 114.014 34.9941L115.47 26.7715L118.096 26.7812L115.587 41H112.12L109.805 32.6992C109.747 32.4974 109.708 32.2923 109.688 32.084C109.675 31.8757 109.669 31.6478 109.669 31.4004H109.6C109.568 31.6478 109.535 31.8919 109.503 32.1328C109.47 32.3737 109.431 32.6178 109.386 32.8652L107.95 41H105.343ZM118.146 41L120.655 26.7812H129.23L128.8 29.2129H123.448L122.784 33.002H127.472L127.052 35.3945H122.364L121.378 41H118.146ZM128.937 34.3301L129.093 33.4512C129.51 31.127 130.347 29.3887 131.603 28.2363C132.866 27.0775 134.354 26.498 136.066 26.498C137.772 26.498 139.058 27.0775 139.923 28.2363C140.789 29.3887 141.014 31.127 140.597 33.4512L140.441 34.3301C140.037 36.6543 139.198 38.3958 137.921 39.5547C136.652 40.707 135.164 41.2832 133.459 41.2832C131.746 41.2832 130.464 40.707 129.611 39.5547C128.758 38.3958 128.533 36.6543 128.937 34.3301ZM132.16 34.916C131.919 36.2572 131.948 37.2467 132.248 37.8848C132.554 38.5228 133.101 38.8418 133.888 38.8418C134.683 38.8418 135.343 38.5228 135.871 37.8848C136.405 37.2467 136.789 36.2572 137.023 34.916L137.384 32.8652C137.625 31.5241 137.589 30.5378 137.277 29.9062C136.971 29.2682 136.421 28.9492 135.627 28.9492C134.845 28.9492 134.191 29.2682 133.664 29.9062C133.136 30.5378 132.752 31.5241 132.511 32.8652L132.16 34.916Z" fill="#FF7A6A"/>
</svg>
